<svg xmlns="http://www.w3.org/2000/svg" viewBox="0 0 500 500"><g id="freepik--Boxes--inject-211"><g id="freepik--boxes--inject-211"><g id="freepik--Box--inject-211"><polygon points="288.51 359.18 288.51 303.15 361.3 261.12 361.3 317.15 288.51 359.18" style="fill:#430BAB"></polygon><polygon points="288.51 359.18 288.51 303.15 361.3 261.12 361.3 317.15 288.51 359.18" style="opacity:0.30000000000000004"></polygon><polygon points="288.51 303.15 197.52 250.61 197.52 306.65 288.51 359.18 288.51 303.15" style="fill:#430BAB"></polygon><polygon points="288.51 303.15 197.52 250.61 197.52 306.65 288.51 359.18 288.51 303.15" style="opacity:0.55"></polygon><polygon points="288.51 303.15 363.45 259.86 270.31 206.06 195.36 249.36 288.51 303.15" style="fill:#430BAB"></polygon><polygon points="288.51 303.15 363.45 259.86 270.31 206.06 195.36 249.36 288.51 303.15" style="opacity:0.15"></polygon><polygon points="288.51 303.15 288.51 317.15 363.45 273.88 363.45 259.86 288.51 303.15" style="fill:#430BAB"></polygon><polygon points="288.51 303.15 288.51 317.15 363.45 273.88 363.45 259.86 288.51 303.15" style="opacity:0.30000000000000004"></polygon><polygon points="288.51 317.15 361.3 275.13 361.3 278.21 288.51 320.24 288.51 317.15" style="opacity:0.2"></polygon><polygon points="195.36 249.36 288.51 303.15 288.51 317.15 195.36 263.38 195.36 249.36" style="fill:#430BAB"></polygon><polygon points="195.36 249.36 288.51 303.15 288.51 317.15 195.36 263.38 195.36 249.36" style="opacity:0.55"></polygon><polygon points="288.51 317.15 197.52 264.62 197.52 267.7 288.51 320.24 288.51 317.15" style="opacity:0.2"></polygon><path d="M312.47,311.66l24.87-14.35c1.07-.62,1.94-.12,1.94,1.12v14.7a4.29,4.29,0,0,1-1.94,3.36l-24.87,14.35c-1.07.62-1.94.12-1.94-1.12V315A4.29,4.29,0,0,1,312.47,311.66Z" style="fill:#37474f"></path><path d="M314.06,313.33l21.68-12.52c.72-.41,1.3-.07,1.3.75v11a2.84,2.84,0,0,1-1.3,2.24l-21.68,12.52c-.71.41-1.29.08-1.29-.75v-11A2.85,2.85,0,0,1,314.06,313.33Z" style="fill:#f5f5f5"></path><g style="opacity:0.5"><path d="M314.67,316.24a.33.33,0,0,1-.28-.16.32.32,0,0,1,.12-.43L335,303.83a.32.32,0,0,1,.43.12.31.31,0,0,1-.11.43L314.83,316.2A.32.32,0,0,1,314.67,316.24Z" style="fill:#455a64"></path><path d="M314.67,319a.33.33,0,0,1-.28-.16.32.32,0,0,1,.12-.43L335,306.54a.31.31,0,0,1,.43.12.31.31,0,0,1-.11.43L314.83,318.9A.33.33,0,0,1,314.67,319Z" style="fill:#455a64"></path><path d="M314.67,321.65a.31.31,0,0,1-.28-.16.32.32,0,0,1,.12-.43L335,309.25a.31.31,0,0,1,.32.54l-20.47,11.82A.32.32,0,0,1,314.67,321.65Z" style="fill:#455a64"></path><path d="M314.67,324.36a.33.33,0,0,1-.28-.16.32.32,0,0,1,.12-.43L335,312a.32.32,0,0,1,.43.12.31.31,0,0,1-.11.43l-20.47,11.82A.32.32,0,0,1,314.67,324.36Z" style="fill:#455a64"></path></g></g><g id="freepik--box--inject-211"><polygon points="197.37 248.2 288.73 300.95 361.67 258.82 270.31 206.06 197.37 248.2" style="opacity:0.30000000000000004"></polygon><g id="freepik--box--inject-211"><polygon points="288.73 298.81 288.73 242.78 361.52 200.75 361.52 256.79 288.73 298.81" style="fill:#430BAB"></polygon><polygon points="288.73 242.78 197.74 190.25 197.74 246.28 288.73 298.81 288.73 242.78" style="fill:#430BAB"></polygon><polygon points="288.73 242.78 197.74 190.25 197.74 246.28 288.73 298.81 288.73 242.78" style="opacity:0.15"></polygon><polygon points="288.73 242.78 363.68 199.49 270.53 145.7 195.58 188.99 288.73 242.78" style="fill:#430BAB"></polygon><polygon points="288.73 242.78 363.68 199.49 270.53 145.7 195.58 188.99 288.73 242.78" style="fill:#fff;opacity:0.2"></polygon><polygon points="288.73 242.78 288.73 256.79 363.68 213.52 363.68 199.49 288.73 242.78" style="fill:#430BAB"></polygon><polygon points="288.73 256.79 361.52 214.76 361.52 217.84 288.73 259.87 288.73 256.79" style="opacity:0.2"></polygon><polygon points="195.58 188.99 288.73 242.78 288.73 256.79 195.58 203.01 195.58 188.99" style="fill:#430BAB"></polygon><polygon points="195.58 188.99 288.73 242.78 288.73 256.79 195.58 203.01 195.58 188.99" style="opacity:0.2"></polygon><polygon points="288.73 256.79 197.74 204.25 197.74 207.34 288.73 259.87 288.73 256.79" style="opacity:0.2"></polygon><path d="M312.69,251.3l24.87-14.36c1.07-.62,1.94-.12,1.94,1.12v14.7a4.29,4.29,0,0,1-1.94,3.36l-24.87,14.36c-1.07.62-1.94.11-1.94-1.12v-14.7A4.27,4.27,0,0,1,312.69,251.3Z" style="fill:#455a64"></path><path d="M314.28,253,336,240.45c.72-.42,1.3-.08,1.3.74v11a2.84,2.84,0,0,1-1.3,2.24L314.28,267c-.71.41-1.29.08-1.29-.75v-11A2.87,2.87,0,0,1,314.28,253Z" style="fill:#f5f5f5"></path><g style="opacity:0.5"><path d="M314.89,255.87a.31.31,0,0,1-.27-.15.32.32,0,0,1,.11-.44l20.47-11.81a.31.31,0,0,1,.32.54l-20.47,11.82A.32.32,0,0,1,314.89,255.87Z" style="fill:#455a64"></path><path d="M314.89,258.58a.32.32,0,0,1-.27-.16.31.31,0,0,1,.11-.43l20.47-11.82a.32.32,0,0,1,.43.12.31.31,0,0,1-.11.43l-20.47,11.82A.32.32,0,0,1,314.89,258.58Z" style="fill:#455a64"></path><path d="M314.89,261.29a.32.32,0,0,1-.27-.16.31.31,0,0,1,.11-.43l20.47-11.82a.31.31,0,0,1,.43.12.31.31,0,0,1-.11.43l-20.47,11.81A.33.33,0,0,1,314.89,261.29Z" style="fill:#455a64"></path><path d="M314.89,264a.3.3,0,0,1-.27-.16.31.31,0,0,1,.11-.43l20.47-11.81a.31.31,0,1,1,.32.54L315.05,264A.32.32,0,0,1,314.89,264Z" style="fill:#455a64"></path></g></g></g></g></g><g id="freepik--Cabinet--inject-211"><g id="freepik--cabinet--inject-211"><g id="freepik--cabinet--inject-211"><polygon points="145.13 439.1 57 388.22 57 134.23 145.13 185.11 145.13 439.1" style="fill:#263238"></polygon><polygon points="145.13 185.11 265.66 115.52 265.66 369.51 145.13 439.1 145.13 185.11" style="fill:#37474f"></polygon><polygon points="265.66 115.52 145.13 185.11 57 134.23 177.53 64.64 265.66 115.52" style="fill:#455a64"></polygon><g id="freepik--Drawer--inject-211"><polygon points="155.77 359.57 255.01 302.27 255.01 361.45 155.77 418.75 155.77 359.57" style="fill:#263238"></polygon><polygon points="297.59 336.01 250.34 308.75 250.34 360.89 297.59 388.16 297.59 336.01" style="fill:#37474f"></polygon><g style="opacity:0.1"><polygon points="297.59 336.01 250.34 308.75 250.34 360.89 297.59 388.16 297.59 336.01"></polygon></g><polygon points="253.64 306.83 250.34 308.74 297.59 336.01 300.9 334.11 253.64 306.83" style="fill:#455a64"></polygon><path d="M255.46,318.67a1.24,1.24,0,0,0-.49-1.11.5.5,0,0,0-.12-.08L252.3,316h0a1.24,1.24,0,0,0-1.24.13l-47.62,27.43-.77-2.62a1.72,1.72,0,0,0-.74-1h0l-2.66-1.54h0a1.57,1.57,0,0,0-1.62,0L176,351A3.92,3.92,0,0,0,174.2,354v63a1.24,1.24,0,0,0,.48,1.11h0l2.73,1.59h0a1.26,1.26,0,0,0,1.2-.15l75.12-43.34a3.9,3.9,0,0,0,1.76-3.06Z" style="fill:#430BAB"></path><path d="M255.46,318.67l0,54.57a3.88,3.88,0,0,1-1.77,3.05L178.4,419.75a1,1,0,0,1-1.56-.9V355.58a3.61,3.61,0,0,1,.52-1.74,3.73,3.73,0,0,1,1.24-1.31L200.3,340a1.6,1.6,0,0,1,1.58-.07l.05,0h0a1.61,1.61,0,0,1,.73,1l.78,2.63.24.64c.32,1.08,2.08,1.08,3.06.52l47-27.06a1.28,1.28,0,0,1,1.15-.17l.08,0,0,0h0A1.24,1.24,0,0,1,255.46,318.67Z" style="fill:#430BAB"></path><path d="M255.46,318.67l0,54.57a3.88,3.88,0,0,1-1.77,3.05L178.4,419.75a1,1,0,0,1-1.56-.9V355.58a3.61,3.61,0,0,1,.52-1.74,3.73,3.73,0,0,1,1.24-1.31L200.3,340a1.6,1.6,0,0,1,1.58-.07l.05,0h0a1.61,1.61,0,0,1,.73,1l.78,2.63.24.64c.32,1.08,2.08,1.08,3.06.52l47-27.06a1.28,1.28,0,0,1,1.15-.17l.08,0,0,0h0A1.24,1.24,0,0,1,255.46,318.67Z" style="opacity:0.15"></path><path d="M177.48,419.81l-.07,0-2.73-1.58a1.28,1.28,0,0,1-.48-1.13V354a3.61,3.61,0,0,1,.52-1.74l2.64,1.54h0a3.55,3.55,0,0,0-.51,1.73v63.27A1,1,0,0,0,177.48,419.81Z" style="opacity:0.35000000000000003"></path><path d="M264,323.63a1.25,1.25,0,0,0-.49-1.12.36.36,0,0,0-.12-.07L260.8,321h0a1.24,1.24,0,0,0-1.24.13l-47.61,27.44-.78-2.63a1.66,1.66,0,0,0-.74-1h0l-2.65-1.54h0a1.58,1.58,0,0,0-1.62.05l-21.7,12.52A3.9,3.9,0,0,0,182.7,359v63a1.26,1.26,0,0,0,.48,1.12h0l2.73,1.58h0a1.25,1.25,0,0,0,1.2-.14l75.12-43.35a3.9,3.9,0,0,0,1.76-3.05Z" style="fill:#430BAB"></path><path d="M210.38,344.88a1.6,1.6,0,0,0-1.58.07l-21.69,12.53a3.71,3.71,0,0,0-1.25,1.32l-2.64-1.54a3.52,3.52,0,0,1,1.24-1.32l21.7-12.53a1.58,1.58,0,0,1,1.61,0h0Z" style="fill:#fff;opacity:0.15"></path><path d="M263.35,322.44a1.33,1.33,0,0,0-1.16.17l-47,27.06c-1,.57-2.73.57-3.06-.52l-.23-.64,47.61-27.44a1.62,1.62,0,0,1,.78-.24.88.88,0,0,1,.46.12h0Z" style="fill:#fff;opacity:0.15"></path><path d="M264,323.63l0,54.56a3.89,3.89,0,0,1-1.77,3.06L186.9,424.71a1,1,0,0,1-1.56-.9V360.53a3.57,3.57,0,0,1,.52-1.73,3.77,3.77,0,0,1,1.24-1.32L208.8,345a1.58,1.58,0,0,1,1.58-.08l.05,0h0a1.63,1.63,0,0,1,.73,1l.79,2.62.23.65c.33,1.08,2.08,1.08,3.06.52l47-27.07a1.32,1.32,0,0,1,1.15-.17l.08,0,0,0h0A1.28,1.28,0,0,1,264,323.63Z" style="fill:#430BAB"></path><path d="M186,424.76s-.06,0-.08,0l-2.73-1.58a1.26,1.26,0,0,1-.48-1.12V359a3.54,3.54,0,0,1,.52-1.73l2.64,1.54h0a3.59,3.59,0,0,0-.51,1.74V423.8A1,1,0,0,0,186,424.76Z" style="opacity:0.2"></path><path d="M272.46,328.58a1.29,1.29,0,0,0-.48-1.12l-.13-.07-2.55-1.49h0a1.24,1.24,0,0,0-1.24.13l-47.61,27.43-.78-2.62a1.72,1.72,0,0,0-.74-1h0l-2.65-1.54h0a1.57,1.57,0,0,0-1.62,0L193,360.89A3.9,3.9,0,0,0,191.2,364v63a1.24,1.24,0,0,0,.48,1.11h0l2.73,1.59h0a1.26,1.26,0,0,0,1.2-.15l75.12-43.34a3.9,3.9,0,0,0,1.76-3.06Z" style="fill:#430BAB"></path><path d="M218.88,349.84a1.55,1.55,0,0,0-1.58.07l-21.69,12.52a3.88,3.88,0,0,0-1.25,1.32l-2.64-1.54a3.62,3.62,0,0,1,1.25-1.32l21.69-12.52a1.56,1.56,0,0,1,1.61,0h0Z" style="fill:#fff;opacity:0.30000000000000004"></path><path d="M271.85,327.39a1.33,1.33,0,0,0-1.16.17l-47,27.07c-1,.56-2.73.56-3.06-.52l-.23-.65L268.05,326a1.6,1.6,0,0,1,.78-.23,1,1,0,0,1,.46.11h0Z" style="fill:#fff;opacity:0.30000000000000004"></path><path d="M272.46,328.58l0,54.57a3.88,3.88,0,0,1-1.77,3.05L195.4,429.66a1,1,0,0,1-1.56-.9V365.49a3.61,3.61,0,0,1,.52-1.74,3.82,3.82,0,0,1,1.24-1.31l21.7-12.53a1.62,1.62,0,0,1,1.59-.07l0,0h0a1.61,1.61,0,0,1,.73,1l.79,2.63.23.64c.33,1.08,2.08,1.08,3.06.52l47-27.06a1.3,1.3,0,0,1,1.16-.17l.07,0,0,0h0A1.26,1.26,0,0,1,272.46,328.58Z" style="fill:#430BAB"></path><path d="M272.46,328.58l0,54.57a3.88,3.88,0,0,1-1.77,3.05L195.4,429.66a1,1,0,0,1-1.56-.9V365.49a3.61,3.61,0,0,1,.52-1.74,3.82,3.82,0,0,1,1.24-1.31l21.7-12.53a1.62,1.62,0,0,1,1.59-.07l0,0h0a1.61,1.61,0,0,1,.73,1l.79,2.63.23.64c.33,1.08,2.08,1.08,3.06.52l47-27.06a1.3,1.3,0,0,1,1.16-.17l.07,0,0,0h0A1.26,1.26,0,0,1,272.46,328.58Z" style="fill:#fff;opacity:0.15"></path><path d="M194.49,429.72l-.08,0-2.73-1.58a1.28,1.28,0,0,1-.48-1.13V364a3.61,3.61,0,0,1,.52-1.74l2.64,1.54h0a3.52,3.52,0,0,0-.51,1.73v63.27A1,1,0,0,0,194.49,429.72Z" style="opacity:0.05"></path><path d="M281,333.54a1.27,1.27,0,0,0-.48-1.12.52.52,0,0,0-.13-.07l-2.55-1.49h0a1.24,1.24,0,0,0-1.24.13l-47.61,27.44-.78-2.63a1.66,1.66,0,0,0-.74-1h0l-2.65-1.54h0a1.58,1.58,0,0,0-1.62.05l-21.69,12.52a3.88,3.88,0,0,0-1.77,3v63a1.26,1.26,0,0,0,.48,1.12h0l2.73,1.58h0a1.27,1.27,0,0,0,1.2-.14l75.12-43.35a3.9,3.9,0,0,0,1.76-3Z" style="fill:#430BAB"></path><path d="M227.39,354.79a1.6,1.6,0,0,0-1.58.07l-21.7,12.53a3.71,3.71,0,0,0-1.25,1.32l-2.64-1.54a3.47,3.47,0,0,1,1.25-1.32l21.69-12.53a1.6,1.6,0,0,1,1.62,0h0Z" style="fill:#fff;opacity:0.5"></path><path d="M280.35,332.35a1.33,1.33,0,0,0-1.16.17l-47,27.06c-1,.56-2.73.57-3.06-.52l-.23-.64L276.55,331a1.62,1.62,0,0,1,.78-.24.88.88,0,0,1,.46.12h0Z" style="fill:#fff;opacity:0.5"></path><path d="M281,333.54l0,54.56a3.89,3.89,0,0,1-1.77,3.06l-75.31,43.46a1,1,0,0,1-1.56-.91V370.44a3.55,3.55,0,0,1,.51-1.73,3.79,3.79,0,0,1,1.25-1.32l21.69-12.52a1.6,1.6,0,0,1,1.59-.08l0,0h0a1.68,1.68,0,0,1,.74,1l.78,2.62.23.65c.33,1.08,2.08,1.08,3.06.52l47-27.07a1.33,1.33,0,0,1,1.16-.17l.07,0,0,0h0A1.28,1.28,0,0,1,281,333.54Z" style="fill:#430BAB"></path><path d="M281,333.54l0,54.56a3.89,3.89,0,0,1-1.77,3.06l-75.31,43.46a1,1,0,0,1-1.56-.91V370.44a3.55,3.55,0,0,1,.51-1.73,3.79,3.79,0,0,1,1.25-1.32l21.69-12.52a1.6,1.6,0,0,1,1.59-.08l0,0h0a1.68,1.68,0,0,1,.74,1l.78,2.62.23.65c.33,1.08,2.08,1.08,3.06.52l47-27.07a1.33,1.33,0,0,1,1.16-.17l.07,0,0,0h0A1.28,1.28,0,0,1,281,333.54Z" style="fill:#fff;opacity:0.30000000000000004"></path><polygon points="204.98 389.48 157.72 362.22 157.72 414.36 204.97 441.63 204.98 389.48" style="fill:#37474f"></polygon><polygon points="161.03 360.31 157.72 362.21 204.98 389.48 208.28 387.58 161.03 360.31" style="fill:#455a64"></polygon><polygon points="206.54 386.88 305.78 329.58 305.78 388.77 206.54 446.06 206.54 386.88" style="fill:#455a64"></polygon><polygon points="206.54 386.88 201.53 383.98 201.53 443.17 206.54 446.06 206.54 386.88" style="fill:#263238"></polygon><polygon points="201.53 383.98 300.77 326.68 305.78 329.58 206.54 386.88 201.53 383.98" style="fill:#37474f"></polygon><path d="M273.48,363.48l-3.49-2h0a1,1,0,0,0-1.05.09,3.2,3.2,0,0,0-1.46,2.54,1,1,0,0,0,.43,1h0l3.5,2c.49.28.62.53.63.57s-.18.44-.91.86l-16.27,9.4a7.59,7.59,0,0,1-6.62.16l-3.48-2h0a1,1,0,0,0-1,.11,3.26,3.26,0,0,0-1.47,2.54,1,1,0,0,0,.42.94h0l3.49,2a10.43,10.43,0,0,0,5.13,1.22,11.51,11.51,0,0,0,5.63-1.38l16.28-9.4a5.28,5.28,0,0,0,3-4.45A4.89,4.89,0,0,0,273.48,363.48Z" style="fill:#263238"></path><g id="freepik--Label--inject-211"><path d="M213.23,387.57l18.89-10.91c.63-.36,1.13-.07,1.13.65v9.61a2.47,2.47,0,0,1-1.13,1.95l-18.89,10.91c-.62.36-1.13.07-1.13-.65v-9.61A2.5,2.5,0,0,1,213.23,387.57Z" style="fill:#fafafa"></path><path d="M213.3,398.36v-8.84a1.33,1.33,0,0,1,.53-.92l18.23-10.52v8.84a1.37,1.37,0,0,1-.53.92Zm18.54-19.91-17.9,10.34a1.16,1.16,0,0,0-.43.73V398l17.91-10.34a1.14,1.14,0,0,0,.42-.73Z" style="fill:#430BAB"></path><path d="M215.63,391.56a.44.44,0,0,1-.38-.22.43.43,0,0,1,.16-.59l14.1-8.14a.43.43,0,1,1,.43.75l-14.1,8.14A.39.39,0,0,1,215.63,391.56Z" style="fill:#e0e0e0"></path><path d="M215.63,393.89a.43.43,0,0,1-.38-.21.44.44,0,0,1,.16-.6l14.1-8.14a.43.43,0,0,1,.43.75l-14.1,8.14A.39.39,0,0,1,215.63,393.89Z" style="fill:#e0e0e0"></path></g></g><polygon points="160.71 287.15 259.96 229.85 259.95 289.04 160.71 346.34 160.71 287.15" style="fill:#455a64"></polygon><polygon points="160.71 287.15 155.7 284.26 155.7 343.45 160.71 346.34 160.71 287.15" style="fill:#263238"></polygon><polygon points="155.7 284.26 254.94 226.96 259.96 229.85 160.71 287.15 155.7 284.26" style="fill:#37474f"></polygon><path d="M155.7,284.26,168,276.93l12.34-7.27c8.23-4.85,16.51-9.61,24.76-14.42L230,241c8.31-4.71,16.6-9.45,25-14.09l0,0,0,0,5,3L254.9,227H255c-8.19,4.91-16.44,9.72-24.67,14.56L205.54,256c-8.29,4.74-16.55,9.53-24.87,14.23l-12.46,7.06Z" style="fill:#263238"></path><path d="M227.66,263.76l-3.49-2h0a1,1,0,0,0-1.06.09,3.21,3.21,0,0,0-1.46,2.53,1,1,0,0,0,.44,1h0l3.5,2c.49.28.62.52.63.57s-.18.44-.91.86L209,278.17a7.56,7.56,0,0,1-6.62.17l-3.49-2h0a1,1,0,0,0-1,.11,3.2,3.2,0,0,0-1.46,2.54,1,1,0,0,0,.41.93h0l3.48,2a10.48,10.48,0,0,0,5.14,1.23,11.43,11.43,0,0,0,5.63-1.39l16.27-9.39a5.31,5.31,0,0,0,3-4.45A4.89,4.89,0,0,0,227.66,263.76Z" style="fill:#263238"></path><g id="freepik--label--inject-211"><path d="M167.4,287.85l18.9-10.91c.62-.36,1.13-.07,1.13.65v9.61a2.5,2.5,0,0,1-1.13,1.95l-18.9,10.91c-.62.36-1.12.07-1.12-.65V289.8A2.49,2.49,0,0,1,167.4,287.85Z" style="fill:#fafafa"></path><path d="M167.47,298.64V289.8a1.37,1.37,0,0,1,.53-.92l18.23-10.53v8.85a1.37,1.37,0,0,1-.53.92ZM186,278.73l-17.91,10.34a1.14,1.14,0,0,0-.42.73v8.47l17.9-10.34a1.16,1.16,0,0,0,.43-.73Z" style="fill:#430BAB"></path><path d="M169.8,291.83a.44.44,0,0,1-.38-.21.46.46,0,0,1,.16-.6l14.1-8.14a.44.44,0,0,1,.44.76L170,291.78A.44.44,0,0,1,169.8,291.83Z" style="fill:#e0e0e0"></path><path d="M169.8,294.17a.43.43,0,0,1-.22-.81l14.1-8.14a.44.44,0,0,1,.6.16.44.44,0,0,1-.16.59L170,294.11A.46.46,0,0,1,169.8,294.17Z" style="fill:#e0e0e0"></path></g><polygon points="160.71 211.42 259.96 154.12 259.95 213.31 160.71 270.61 160.71 211.42" style="fill:#455a64"></polygon><polygon points="160.71 211.42 155.7 208.53 155.7 267.72 160.71 270.61 160.71 211.42" style="fill:#263238"></polygon><polygon points="155.7 208.53 254.94 151.23 259.96 154.12 160.71 211.42 155.7 208.53" style="fill:#37474f"></polygon><path d="M155.7,208.53,168,201.2l12.34-7.27c8.23-4.85,16.51-9.61,24.76-14.42L230,165.24c8.31-4.71,16.6-9.45,25-14.09l0,0,0,0,5,3-5.06-2.81H255c-8.19,4.92-16.44,9.72-24.67,14.57l-24.78,14.37c-8.29,4.74-16.55,9.53-24.87,14.23l-12.46,7.06Z" style="fill:#263238"></path><path d="M227.66,188l-3.49-2h0a1,1,0,0,0-1.06.09,3.21,3.21,0,0,0-1.46,2.53,1,1,0,0,0,.44,1h0l3.5,2c.49.28.62.52.63.57s-.18.44-.91.86L209,202.44a7.56,7.56,0,0,1-6.62.17l-3.49-2h0a1,1,0,0,0-1,.11,3.2,3.2,0,0,0-1.46,2.54,1,1,0,0,0,.41.93h0l3.48,2a10.48,10.48,0,0,0,5.14,1.23,11.43,11.43,0,0,0,5.63-1.39l16.27-9.39a5.31,5.31,0,0,0,3-4.45A4.89,4.89,0,0,0,227.66,188Z" style="fill:#263238"></path><g id="freepik--label--inject-211"><path d="M167.4,211.72l18.9-10.91c.62-.36,1.13-.07,1.13.65v9.61a2.5,2.5,0,0,1-1.13,2l-18.9,10.91c-.62.36-1.12.07-1.12-.65v-9.61A2.49,2.49,0,0,1,167.4,211.72Z" style="fill:#fafafa"></path><path d="M167.47,222.51v-8.84a1.37,1.37,0,0,1,.53-.92l18.23-10.53v8.85a1.37,1.37,0,0,1-.53.92ZM186,202.6l-17.91,10.34a1.14,1.14,0,0,0-.42.73v8.47l17.9-10.34a1.16,1.16,0,0,0,.43-.73Z" style="fill:#430BAB"></path><path d="M169.8,215.71a.45.45,0,0,1-.38-.22.45.45,0,0,1,.16-.59l14.1-8.15a.44.44,0,1,1,.44.76L170,215.65A.46.46,0,0,1,169.8,215.71Z" style="fill:#e0e0e0"></path><path d="M169.8,218a.45.45,0,0,1-.38-.22.45.45,0,0,1,.16-.59l14.1-8.14a.44.44,0,0,1,.6.16.44.44,0,0,1-.16.59L170,218A.46.46,0,0,1,169.8,218Z" style="fill:#e0e0e0"></path></g></g><g id="freepik--label--inject-211"><g id="freepik--label--inject-211"><path d="M156.83,186.12l38.79-22.38c.62-.36,1.12-.06,1.12.65v13.68a2.49,2.49,0,0,1-1.12,2L156.83,202.4c-.63.36-1.13.07-1.13-.65V188.07A2.47,2.47,0,0,1,156.83,186.12Z" style="fill:#fafafa"></path><path d="M156.89,201V188.07a1.37,1.37,0,0,1,.53-.92l38.13-22v12.91a1.37,1.37,0,0,1-.53.92Zm38.44-35.44-37.8,21.8a1.19,1.19,0,0,0-.42.73v12.54l37.8-21.81a1.14,1.14,0,0,0,.42-.73Z" style="fill:#430BAB"></path></g><path d="M162.25,191.27l1.48-4.82c0-.06.06-.14.11-.26a.58.58,0,0,1,.23-.26l.53-.31a.12.12,0,0,1,.15,0,.27.27,0,0,1,.06.19v7.77a.66.66,0,0,1-.06.27.39.39,0,0,1-.15.18l-.63.36a.11.11,0,0,1-.15,0,.25.25,0,0,1-.06-.19v-4.7l-1,3.29a1.12,1.12,0,0,1-.11.26.38.38,0,0,1-.18.21l-.4.23q-.12.07-.18,0a.33.33,0,0,1-.11-.13l-1-2.12v4.7a.66.66,0,0,1-.06.27.39.39,0,0,1-.15.18l-.63.36a.11.11,0,0,1-.15,0,.25.25,0,0,1-.06-.19v-7.77a.62.62,0,0,1,.06-.26.35.35,0,0,1,.15-.18l.53-.31c.11-.06.18-.06.23,0l.11.13Z" style="fill:#455a64"></path><path d="M170.18,182.4a.11.11,0,0,1,.15,0,.22.22,0,0,1,.07.19.5.5,0,0,1,0,.12l-1.85,6.08v2.65a.65.65,0,0,1-.06.26.35.35,0,0,1-.15.18l-.63.36a.1.1,0,0,1-.14,0,.22.22,0,0,1-.07-.19V189.4l-1.85-3.94a.31.31,0,0,1,0-.1.58.58,0,0,1,.06-.26.42.42,0,0,1,.15-.19l.58-.33c.11-.06.19-.07.24,0a.31.31,0,0,1,.09.13l1.27,2.67,1.26-4.13a.94.94,0,0,1,.1-.24.51.51,0,0,1,.23-.25Z" style="fill:#455a64"></path><path d="M176.93,178.5a.12.12,0,0,1,.15,0,.27.27,0,0,1,.06.19v.86a.62.62,0,0,1-.06.26.35.35,0,0,1-.15.18l-2.49,1.44v2.34l2.34-1.35a.11.11,0,0,1,.15,0,.25.25,0,0,1,.06.19v.85a.66.66,0,0,1-.06.27.47.47,0,0,1-.15.18l-2.34,1.35V188a.66.66,0,0,1-.06.27.35.35,0,0,1-.15.18l-.63.36a.11.11,0,0,1-.15,0,.25.25,0,0,1-.06-.19v-7.77a.65.65,0,0,1,.06-.26.35.35,0,0,1,.15-.18Z" style="fill:#455a64"></path><path d="M178.26,186.15a.11.11,0,0,1-.15,0,.25.25,0,0,1-.06-.19v-7.77a.62.62,0,0,1,.06-.26.35.35,0,0,1,.15-.18l.63-.37a.12.12,0,0,1,.15,0,.25.25,0,0,1,.06.19v7.77a.58.58,0,0,1-.06.26.42.42,0,0,1-.15.19Z" style="fill:#455a64"></path><path d="M184,181.36a.12.12,0,0,1,.15,0,.27.27,0,0,1,.07.19v.86a.59.59,0,0,1-.07.26.42.42,0,0,1-.15.19l-3.42,2a.12.12,0,0,1-.15,0,.25.25,0,0,1-.06-.19v-7.77a.66.66,0,0,1,.06-.27.71.71,0,0,1,.15-.18l.64-.36a.11.11,0,0,1,.15,0,.25.25,0,0,1,.06.19v6.59Z" style="fill:#455a64"></path><path d="M188.55,178.71a.11.11,0,0,1,.15,0,.25.25,0,0,1,.06.19v.85a.66.66,0,0,1-.06.27.35.35,0,0,1-.15.18l-3.42,2a.12.12,0,0,1-.15,0,.27.27,0,0,1-.07-.19v-7.77A.68.68,0,0,1,185,174a.45.45,0,0,1,.15-.18l3.36-1.94a.12.12,0,0,1,.15,0,.25.25,0,0,1,.06.19v.85a.66.66,0,0,1-.06.27.35.35,0,0,1-.15.18L186,174.79v1.91l2.35-1.36a.12.12,0,0,1,.15,0,.27.27,0,0,1,.06.19v.86a.58.58,0,0,1-.06.26.42.42,0,0,1-.15.19L186,178.2v2Z" style="fill:#455a64"></path><path d="M191.61,169.91a2.07,2.07,0,0,1,.92-.32,1.14,1.14,0,0,1,.66.16,1.1,1.1,0,0,1,.4.48,1.69,1.69,0,0,1,.16.66.58.58,0,0,1-.06.26.4.4,0,0,1-.15.18l-.55.32c-.09,0-.15.06-.2,0a.35.35,0,0,1-.12-.14.62.62,0,0,0-.35-.31.91.91,0,0,0-.71.18,2.19,2.19,0,0,0-.39.29,2.3,2.3,0,0,0-.32.38,1.9,1.9,0,0,0-.21.43,1.19,1.19,0,0,0-.08.45.86.86,0,0,0,.07.41.34.34,0,0,0,.25.16,1.7,1.7,0,0,0,.47,0l.72-.16a3.16,3.16,0,0,1,.8-.1.9.9,0,0,1,.56.19,1,1,0,0,1,.32.49,2.74,2.74,0,0,1,.1.82,4.15,4.15,0,0,1-.15,1.09,4.44,4.44,0,0,1-.45,1.05,4.84,4.84,0,0,1-.71.94,4.4,4.4,0,0,1-.94.73,2.37,2.37,0,0,1-.84.32,1.2,1.2,0,0,1-.71-.06,1,1,0,0,1-.49-.45,1.74,1.74,0,0,1-.21-.84.45.45,0,0,1,.06-.27.45.45,0,0,1,.15-.18l.55-.31a.24.24,0,0,1,.2-.05.32.32,0,0,1,.12.15,1.41,1.41,0,0,0,.13.24.41.41,0,0,0,.21.15.71.71,0,0,0,.33,0,1.73,1.73,0,0,0,.5-.21,4,4,0,0,0,.45-.31,2.1,2.1,0,0,0,.38-.41,2.13,2.13,0,0,0,.27-.46,1.34,1.34,0,0,0,.1-.52.51.51,0,0,0-.11-.37.41.41,0,0,0-.33-.1,3.64,3.64,0,0,0-.55.09c-.22,0-.47.11-.76.16a2.39,2.39,0,0,1-.68,0,.81.81,0,0,1-.49-.21,1,1,0,0,1-.28-.51,3,3,0,0,1-.1-.88,4.17,4.17,0,0,1,.16-1.09,5.47,5.47,0,0,1,.43-1,4.65,4.65,0,0,1,.65-.88A3.6,3.6,0,0,1,191.61,169.91Z" style="fill:#455a64"></path></g></g><g id="freepik--Pot--inject-211"><path d="M190.68,97.17c-6.65,3.85-6.65,10.08,0,13.92s17.45,3.84,24.11,0,6.65-10.07,0-13.92S197.34,93.33,190.68,97.17Z" style="opacity:0.15"></path><path d="M213.72,105.14c5.88-6,9.33-21,3.6-25.73H188.15c-5.73,4.75-2.28,19.72,3.59,25.72l.16.17.2.2c.17.16.35.32.54.47l.14.11a5,5,0,0,0,.44.33,7,7,0,0,0,.76.49c4.84,2.79,12.67,2.79,17.51,0h0a8.23,8.23,0,0,0,.77-.49l.41-.31.17-.14.51-.45.24-.23Z" style="fill:#ebebeb"></path><path d="M190.68,77.49c-6.65,3.85-6.65,10.08,0,13.92s17.45,3.84,24.11,0,6.65-10.07,0-13.92S197.34,73.65,190.68,77.49Z" style="fill:#fafafa"></path><path d="M195.4,80.22c-4.05,2.34-4.05,6.13,0,8.46a16.21,16.21,0,0,0,14.67,0c4.05-2.33,4.05-6.12,0-8.46A16.21,16.21,0,0,0,195.4,80.22Z" style="fill:#ebebeb"></path><path d="M210.07,84.24a16.21,16.21,0,0,0-14.67,0A6.67,6.67,0,0,0,193,86.46a6.75,6.75,0,0,0,2.42,2.22,16.21,16.21,0,0,0,14.67,0,6.75,6.75,0,0,0,2.42-2.22A6.67,6.67,0,0,0,210.07,84.24Z" style="fill:#e0e0e0"></path><path d="M201.66,87.74A11.77,11.77,0,0,1,193.32,83,33.59,33.59,0,0,1,191,79.41c-2.45-4.33-2.9-10.14-1.63-10.85s6.42,5.07,6.42,5.07a31.56,31.56,0,0,1-.55-7.39c.22-3.86,1.16-7.37,2.27-8.07s3.57,4.16,4.63,7.68,1.7,6.43,1.7,6.43a54.13,54.13,0,0,1,1.9-8.12c1.28-3.66,2.45-4.49,3.35-4.12s1.5,2.07,1.77,6.94a49,49,0,0,1-.22,7s1.82-2,3.83-3.94c2.22-2.12,3.17-2.42,3.8-2s.81,3.72-2.62,9.92a38.56,38.56,0,0,1-3.59,5.37,11.83,11.83,0,0,1-10.2,4.46Z" style="fill:#430BAB"></path><path d="M201.66,87.74A11.77,11.77,0,0,1,193.32,83,33.59,33.59,0,0,1,191,79.41c-2.45-4.33-2.9-10.14-1.63-10.85s6.42,5.07,6.42,5.07a31.56,31.56,0,0,1-.55-7.39c.22-3.86,1.16-7.37,2.27-8.07s3.57,4.16,4.63,7.68,1.7,6.43,1.7,6.43a54.13,54.13,0,0,1,1.9-8.12c1.28-3.66,2.45-4.49,3.35-4.12s1.5,2.07,1.77,6.94a49,49,0,0,1-.22,7s1.82-2,3.83-3.94c2.22-2.12,3.17-2.42,3.8-2s.81,3.72-2.62,9.92a38.56,38.56,0,0,1-3.59,5.37,11.83,11.83,0,0,1-10.2,4.46Z" style="opacity:0.15"></path><path d="M196,61.35a25.92,25.92,0,0,0-.72,4.89,31.56,31.56,0,0,0,.55,7.39l2.56,2.66S195.78,67.79,196,61.35Z" style="opacity:0.15"></path><path d="M217,68.05a11.2,11.2,0,0,0-2.53,2c-2,1.94-3.83,3.94-3.83,3.94a25.38,25.38,0,0,1-.58,3.66C213.81,75.45,217,68.05,217,68.05Z" style="opacity:0.15"></path><path d="M205.26,69.47a38.25,38.25,0,0,1,2.29-8.91h0a10.5,10.5,0,0,0-1.84,3.59,54.13,54.13,0,0,0-1.9,8.12l.68,3.31S204.76,72.66,205.26,69.47Z" style="opacity:0.15"></path></g><g id="freepik--Files--inject-211"><path id="freepik--shadow--inject-211" d="M216.62,138.9a1.08,1.08,0,0,0,0-2.06L139.47,93.18a4.07,4.07,0,0,0-3.63,0l-70,39.63,80.81,45.7Z" style="opacity:0.15"></path><g id="freepik--File--inject-211"><path d="M210.13,139.28a1.15,1.15,0,0,0,.68-.93v-1.44L141.73,97.85a3.75,3.75,0,0,0-3.3,0l-63.57,36,71.72,41.41Z" style="fill:#430BAB"></path><path d="M210.13,137.88c.91-.52.91-1.35,0-1.87l-68.4-39.56a3.75,3.75,0,0,0-3.3,0l-63.57,36,71.72,41.41Z" style="fill:#430BAB"></path><path d="M210.13,137.88c.91-.52.91-1.35,0-1.87l-68.4-39.56a3.75,3.75,0,0,0-3.3,0l-63.57,36,71.72,41.41Z" style="opacity:0.5"></path><path d="M89.49,123l47.07-26.63a3.66,3.66,0,0,1,3.29,0l63,36.48,6.12-3.5v7.11l-.12.07c.21.43,0,.92-.56,1.26l-53.91,30.5L82.63,126.92v-7.77Z" style="fill:#ebebeb"></path><path d="M208.26,130.07a1,1,0,0,0,0-1.87L139.85,88.64a3.73,3.73,0,0,0-3.29,0L82.63,119.15l71.72,41.41Z" style="fill:#fafafa"></path><polygon points="154.35 160.56 154.35 168.33 82.63 126.92 82.63 119.16 154.35 160.56" style="fill:#e6e6e6"></polygon><path d="M153.48,157.53a2.31,2.31,0,0,0,1.58.19,1,1,0,0,0,.3-.11c.5-.26.44-.75-.13-1.07a2.2,2.2,0,0,0-.86-.24,1.84,1.84,0,0,0-1,.17.26.26,0,0,0-.1.07C152.87,156.82,153,157.23,153.48,157.53Z" style="fill:#263238"></path><path d="M145.17,163.61a4.13,4.13,0,0,0,.84,2.68,3,3,0,0,0,2.36,1.1h0a4.6,4.6,0,0,0,2.28-.67,4.36,4.36,0,0,0,.41-.24l-.93-.52c-2.24,1.23-4,.18-4-2.35a8.83,8.83,0,0,1,4.07-6.92,2.77,2.77,0,0,1,3.06-.15,2.17,2.17,0,0,1,.84,1.2,2,2,0,0,0,1,0,3.37,3.37,0,0,0-.69-1.42,3,3,0,0,0-2.35-1.08,4.72,4.72,0,0,0-2.3.67A9.68,9.68,0,0,0,145.17,163.61Z" style="fill:#455a64"></path><path d="M147.53,156.27,210.81,126v1a1.77,1.77,0,0,1-.82,1.4l-62.46,29.32Z" style="fill:#430BAB"></path><path d="M210.13,126.88c.91-.52.91-1.35,0-1.87l-68.4-39.56a3.75,3.75,0,0,0-3.3,0L74.86,115.38l71.72,41.41Z" style="fill:#430BAB"></path><path d="M210.13,126.88c.91-.52.91-1.35,0-1.87l-68.4-39.56a3.75,3.75,0,0,0-3.3,0L74.86,115.38l71.72,41.41Z" style="fill:#fff;opacity:0.4"></path><polygon points="146.58 175.25 74.86 133.84 74.86 115.35 146.58 156.8 146.58 175.25" style="fill:#430BAB"></polygon><polygon points="146.58 175.25 74.86 133.84 74.86 115.35 146.58 156.8 146.58 175.25" style="fill:#fff;opacity:0.2"></polygon><path d="M132.11,163.39a3,3,0,0,0,2.37-1.1,4.2,4.2,0,0,0,.83-2.68,9.71,9.71,0,0,0-4.55-7.73,4.75,4.75,0,0,0-2.3-.67c-1.92,0-3.2,1.52-3.2,3.79a9.68,9.68,0,0,0,4.55,7.72,4.64,4.64,0,0,0,2.29.67Z" style="fill:#455a64"></path><path d="M134.36,159.61c0,2.55-1.82,3.58-4.08,2.31a8.8,8.8,0,0,1-4.07-6.92c0-2.55,1.82-3.58,4.07-2.31A8.8,8.8,0,0,1,134.36,159.61Z" style="fill:#f5f5f5"></path><path d="M119.57,150.33v1.4c0,2.8-2,3.93-4.48,2.53L85,136.36a9.69,9.69,0,0,1-4.48-7.6v-1.4c0-2.8,2-3.93,4.48-2.54l30.14,17.91A9.65,9.65,0,0,1,119.57,150.33Z" style="fill:#f5f5f5"></path><polygon points="147.56 174.7 147.56 156.33 146.58 156.8 146.58 175.25 147.56 174.7" style="fill:#430BAB"></polygon></g><g id="freepik--Photo--inject-211"><path d="M137.84,101.71l-26.71,12.58c-.67.31-.69.86-.06,1.23L143,134a2.84,2.84,0,0,0,2.35.1l26.71-12.58c.67-.31.69-.86.06-1.23l-31.94-18.45A2.84,2.84,0,0,0,137.84,101.71Z" style="fill:#fafafa"></path><g id="freepik--Top--inject-211"><path d="M172.37,120.45c.37.34.26.78-.3,1L164.59,125l-9-6c4.22-1.49,5.52-1.24,10.12-.17C167.59,119.27,170,119.84,172.37,120.45Z" style="fill:#e6e6e6"></path><path d="M165.8,121.76c.85.56,1.61,1.1,2.3,1.6l-22.74,10.71A2.84,2.84,0,0,1,143,134l-2.57-1.48c-1.26-1.33-2.25-2.85-1.81-4.37,0,0,4.85-3.61,3.06-4.79l8.05-3.5c1,.66,4.16-.66,7.26-1.09C159.87,118.33,164.12,120.63,165.8,121.76Z" style="fill:#f5f5f5"></path><path d="M143.23,115.28a4.22,4.22,0,0,1-1.46,1.8c-.67.43-1,1-1.63,1.45-1.31,1,1,2.68-1.11,3-2-.73-7.69-.43-12.11-2.89-2.24-1.24-3-2.93-1.75-4.51-1.26-1.09-.7-1.88-.45-2.3a7.42,7.42,0,0,1,2.63-2.39,21.51,21.51,0,0,1,3.69-1.83c1.46-.54,2.9-1,3.57-2,.29-.41.93-.21,1.32,0a3.69,3.69,0,0,1,.76.63,4.84,4.84,0,0,1,.39.57,1.27,1.27,0,0,0,.31-.92c0-.27-.16-.87.4-.82a3.09,3.09,0,0,1,1.51.72,2.39,2.39,0,0,1,.86,1.35,3.17,3.17,0,0,1,2.14,0,2.26,2.26,0,0,1,1.65,1.68,2.16,2.16,0,0,1-.82,1.56.86.86,0,0,0-.23.44c0,.19.21.43.29.62A4.79,4.79,0,0,1,143.23,115.28Z" style="fill:#37474f"></path><path d="M130.06,113.08c1.9.25,7.27,2.8,10.6,5a3.88,3.88,0,0,1-.52.46c-1.31,1,1.12,2.76-1,3-2-.74-7.55-.2-12-2.66-2.24-1.24-3.78-3.35-2-4.82A14.4,14.4,0,0,1,130.06,113.08Z" style="fill:#455a64"></path><path d="M130.06,113.08c2.33.89,3.36,2.94,2.34,3.87a7.68,7.68,0,0,1,2.38,1.31,1.38,1.38,0,0,1,.43.52.45.45,0,0,1-.2.54,1.08,1.08,0,0,1-.95.08c-.45-.1-.93-.16-1.41-.23a3.33,3.33,0,0,0-.63,0c-.92,0-2.87.56-2,1.8s4.19,1.65,5.71,1.23c2.06-.56,1.55-1.85,1.55-1.85l5,3.46a6.21,6.21,0,0,0,3,1c2.9.29,6.67-.25,10.56.34a9.45,9.45,0,0,0-4.78-4.37L148.41,119a15.76,15.76,0,0,0,2.43-1.36c1.48-1.19.65-2.61-.59-3.72-2.77-2.47-10.24-6.28-12.53-5.74-.77.44-.23,1.94-1,2.49C134.9,112,131.42,111.48,130.06,113.08Z" style="fill:#ffa8a7"></path><path d="M137.74,115a1.46,1.46,0,0,0,1.31.09c.4-.19.47-.52.15-.76a1.43,1.43,0,0,0-1.31-.08C137.49,114.39,137.42,114.73,137.74,115Z" style="fill:#263238"></path><path d="M142.83,112.07a1.41,1.41,0,0,0,1.31,0c.37-.2.39-.55,0-.76a1.49,1.49,0,0,0-1.32,0C142.48,111.52,142.47,111.86,142.83,112.07Z" style="fill:#263238"></path><path d="M148.41,119a31.19,31.19,0,0,1-4.71,1.6,12.21,12.21,0,0,1-4.27,0,6.84,6.84,0,0,0,3.56.62,18.17,18.17,0,0,0,6.17-1.78Z" style="fill:#f28f8f"></path><polygon points="139.25 112.8 144.36 114.99 145.54 113.22 139.25 112.8" style="fill:#f28f8f"></polygon><path d="M136.84,113.33l-1,1.22c-.6-.17-.85-.59-.57-.93A1.58,1.58,0,0,1,136.84,113.33Z" style="fill:#263238"></path><path d="M143.29,110.29l-2.32.29c-.16-.36.22-.73.86-.81A1.46,1.46,0,0,1,143.29,110.29Z" style="fill:#263238"></path><path d="M142.81,116.89l2.63-.59c.32.41,0,.88-.74,1A2,2,0,0,1,142.81,116.89Z" style="fill:#b16668"></path><path d="M143.39,117.08a.63.63,0,0,0-.2.1,2.31,2.31,0,0,0,1.51.17l.08,0s0,0,0,0A1.44,1.44,0,0,0,143.39,117.08Z" style="fill:#f28f8f"></path><path d="M154.33,125c-2.13-.18-6.49-.53-8.62-.72a17.43,17.43,0,0,1-4-.9l-.81-.56s-.4,0,0,1a4.27,4.27,0,0,1-.26,2.59s6,1.73,11,1.24C151.43,125.17,153.17,125,154.33,125Z" style="fill:#e6e6e6"></path><path d="M155.42,124.18a14.33,14.33,0,0,0-4.27-3.42l-2-1.32a4.23,4.23,0,0,1,1.05,0,8.35,8.35,0,0,0,3.31,0c2.71.87,5.12,2.52,5.68,3.78C157.43,123,155,122.62,155.42,124.18Z" style="fill:#e6e6e6"></path><g id="freepik--Arms--inject-211"><path d="M147.24,131.91c.29.23.61.52.94.83l-2.82,1.33A2.84,2.84,0,0,1,143,134l-6.59-3.8a21.22,21.22,0,0,1,2.21-2C140.47,128.12,144.23,129.51,147.24,131.91Z" style="fill:#e6e6e6"></path></g></g></g><g id="freepik--label--inject-211"><path d="M179.47,122l-38.26,17.84c-1.08.51-1.12,1.4-.09,2l6.27,3.64a4.66,4.66,0,0,0,3.85.17l38.25-17.84c1.09-.51,1.13-1.4.09-2l-6.27-3.64A4.64,4.64,0,0,0,179.47,122Z" style="fill:#fafafa"></path><path d="M184.54,127.59a10.28,10.28,0,0,1-2.86-.85,6,6,0,0,0-2.1-1.25c-.27-.11-.24.42-.11.53a11.25,11.25,0,0,0,2,1.28c.14.39.12.88-.4.86a2.25,2.25,0,0,1-1-.48c-.11-.07-.18.19-.1.26l.26.4a4.36,4.36,0,0,1-1.91-.8l-.3-.22c-.12-.08-.2.21-.12.28l0,0h0l.14.11a3.65,3.65,0,0,0,.31.24,4.73,4.73,0,0,1,1,1l.21.27c.17.36.16.49-.05.38-.11.11-1.09-.5-1.38-.66A18.59,18.59,0,0,1,175,126.8c-.21-.18-.32.31-.16.44a11.94,11.94,0,0,1,1.86,1.9c.36.45.65,1.21-.27,1a4.59,4.59,0,0,1-1.2-.58c-.16-.1-.21.25-.17.33a2.47,2.47,0,0,1,.2,1.08,3,3,0,0,1-1.42-.81c-.22-.23-.36.13-.3.32.18.63.52,2-.57,1.22a3.25,3.25,0,0,1-.66-.62,1.66,1.66,0,0,0-.84-1.43c-.26-.17-.32.29-.27.44a6.13,6.13,0,0,0,.55,1.08,4,4,0,0,1-1.12,1.93,5.28,5.28,0,0,1-1.43,1c-.53.28-1.61.78-1.23-.33a2.38,2.38,0,0,1,.41-.73,6.13,6.13,0,0,0,1-.88c.19-.19,0-.77-.33-.6a3.57,3.57,0,0,0-.89.71c-.77.49-1.73.78-1.83-.59,0,0,0-.08,0-.12a4.73,4.73,0,0,0,2.44-1.76.32.32,0,0,0,0-.39c-1.28-.89-2.74.72-2.88,2.05a5.71,5.71,0,0,1-.95.2s-.07.11,0,.11a5,5,0,0,0,1-.09,1.48,1.48,0,0,0,0,.21,1.65,1.65,0,0,0,1.21,1.43,1.57,1.57,0,0,0,.43,0,2.66,2.66,0,0,0-.18,1c0,1.22,1.08.89,1.89.52a6.55,6.55,0,0,0,3-3.14,1.91,1.91,0,0,0,1.46.85c.66-.06.61-.92.46-1.62a3.5,3.5,0,0,0,1.32.58c.13,0,.22-.1.22-.22a3.68,3.68,0,0,0-.15-1.17c.76.4,2.07,1,2-.22a2,2,0,0,0-.53-1.08c.19.13.37.26.56.37.48.29,1.71,1.25,2.33,1.06.8-.25.31-1-.36-1.71a4.93,4.93,0,0,0,1.1.28c.14,0,.17-.24.13-.33a1,1,0,0,0-.09-.18c.64.29,1.39.37,1.51-.53a.58.58,0,0,0,0-.19,11.11,11.11,0,0,0,2.52.74C185,128.42,184.89,127.64,184.54,127.59Zm-16.27,2.18a4.87,4.87,0,0,1-1.93,1.5A2.11,2.11,0,0,1,168.27,129.77Z" style="fill:#455a64"></path><path d="M167,136.44a23.42,23.42,0,0,0-2-1.24,5.62,5.62,0,0,0-2.27-1.89c-.26-.12-.24.43-.13.55s.5.5.77.73a2.07,2.07,0,0,0,.38.28c.14.09.25.21.39.31s.29.24.43.36a.9.9,0,0,1,.19.2,1.57,1.57,0,0,1,.22.45.84.84,0,0,1-.75,1.05,2.66,2.66,0,0,1-1-.11,1.08,1.08,0,0,1-.66-.47c-.07-.12-.21-.07-.25.05s-.09.35-.08.34c-.29.24-.66-.23-.83-.39s-.28.3-.23.42l0,.32a2.24,2.24,0,0,1-.57-.31,3.3,3.3,0,0,0-.56-.56c-.25-.19-.3.34-.19.48a3.28,3.28,0,0,0,.4.43c.51.72.24,1.59-.8,1.43a2.67,2.67,0,0,1-.88-.32s0-.09,0-.13a3.16,3.16,0,0,0-2.28-2.68c-.08,0-.13,0-.17.08-.45.7.25,1.4.69,1.9a7,7,0,0,0,1.39,1.22.75.75,0,0,1-1.32.25.11.11,0,0,0-.17.05s-.08.46-.08.47c-.3.41-1.06-.39-1.32-.62s-.28.28-.16.41l.19.9a2.5,2.5,0,0,1-.86-.69l-.05-.07a2.07,2.07,0,0,1-.17-.24l-.05-.06c-.26-.31-.4.27-.28.47a.76.76,0,0,0,.08.11,1.48,1.48,0,0,1-1.1,2.38,2.5,2.5,0,0,1-2.06-1.27c-.5-.65-1.84-2.77-.2-3,.94-.13,1.9.94,2.42,1.52,0,0,.09-.07.07-.11-.53-.88-2.11-2.67-3.25-1.6s0,2.79.71,3.68c.83,1.08,2.18,2,3.48,1a2,2,0,0,0,.74-1.81,2.77,2.77,0,0,0,.77.38c.11,0,.19-.08.22-.17a2,2,0,0,0,0-.91c.31.2.64.36.86.25s.19-.42.18-.67a1,1,0,0,0,1.57-.53,3.28,3.28,0,0,0,.81.3,1.26,1.26,0,0,0,1.7-1,1.51,1.51,0,0,0,0-.52,2.39,2.39,0,0,0,.37.15c.1,0,.18-.07.21-.16a2.46,2.46,0,0,0,.06-.36c.24.21.53.4.77.26a.51.51,0,0,0,.14-.6,1.29,1.29,0,0,0,.62.33,3.1,3.1,0,0,0,.75.13,1.6,1.6,0,0,0,.68-.12c.4-.17.82-.31.86-.82a2.28,2.28,0,0,0,0-.58,3.72,3.72,0,0,0,1.54.64C167.1,136.8,167.1,136.51,167,136.44Zm-10.19.56-.25-.3c-.19-.35-.14-.44.14-.26a2.32,2.32,0,0,1,1,.81,2.49,2.49,0,0,1,.52,1.13A6.83,6.83,0,0,1,156.82,137Z" style="fill:#455a64"></path><path d="M161,136.77h0S161.05,136.74,161,136.77Z" style="fill:#455a64"></path></g></g></g><g id="freepik--Character--inject-211"><g id="freepik--character--inject-211"><g id="freepik--Bottom--inject-211"><g id="freepik--Leg--inject-211"><path d="M402.51,383.19a5.15,5.15,0,0,0,2.25,4.3c4.92,2.75,12.05,3.3,17.93,1.48,6.75-2.09,9.82-5.61,11.13-10.23s1-9.77-.92-15.93c-1.23-4-.39-9.43.12-13.49.85-6.91.19-11.07-2-14.24a9.76,9.76,0,0,0-11.12-3.72l1.33,47.47Z"></path><path d="M410.83,362.12c.05,6.23-1.38,8.47-4.11,12.17-2.39,3.24-8.62,8.36-.65,12.28,6.22,3.05,21.65,2.72,25.77-7.56,3.2-8-1.62-15.46-.43-25.92.8-7,.18-19.29-8-21.17-4.46-1-5.91-.94-12.89,2.64-4.86,2.48-5.26,3.6-5.07,4.25l1.19-.54a8.9,8.9,0,0,1,9.27,4c2.82,4.4,3.16,10.91.14,15.2Z" style="fill:#263238"></path><path d="M359.54,294.39l36.67-9.24c1.78,7.4,2.9,22-.18,33.15s-13.42,29.77-13.42,29.77l25.44-12.95s5.26-.48,9.15,6.55c6.15,11.1.35,22.25.35,22.25s-30.21,17.83-49.38,29.37c-18.95,11.4-30.92,14.95-41.27,6.69-6.11-4.88-7.42-13.92-5-26.87,4-22,37.69-78.72,37.69-78.72" style="fill:#455a64"></path><path d="M368.17,393.29c19.17-11.54,49.38-29.37,49.38-29.37s5.8-11.15-.35-22.25c-3.86-7-9-6.56-9.14-6.56h0l-25.44,12.95h0s4.69-8.46,8.7-17.39v0h0c.16-.36.33-.72.49-1.09v0l0-.05.46-1.05,0-.05c.71-1.66,1.38-3.31,2-4.9l0-.1.56-1.53L363,311.55c2,11.43,11.29,22.16,11.29,22.16s-12.78,33.41-19.07,49.77c-4.93,12.85-16.3,16.65-24.5,14.66-7.3-1.77-9.24-7.36-9.47-8.11h0a20.83,20.83,0,0,0,.82,3h0c.16.47.35.93.54,1.37l0,.07c.19.41.4.82.61,1.21l.11.17c.2.35.41.7.64,1,.07.1.15.19.22.3.2.27.4.55.62.81s.3.32.44.48.33.37.51.55c.34.33.7.64,1.07.94a21.83,21.83,0,0,0,4,2.55,18.19,18.19,0,0,0,3.11,1.21,17.6,17.6,0,0,0,2.15.49,20.84,20.84,0,0,0,3.38.27h0a21.11,21.11,0,0,0,2.23-.12,31,31,0,0,0,5.09-1c1.3-.35,2.64-.79,4-1.31.93-.35,1.87-.73,2.84-1.15a124.87,124.87,0,0,0,14.45-7.66Z" style="fill:#37474f"></path><path d="M381.42,363.77c7.53-9.65,28.36-22.85,32.94-25.86-3.16-3-6.23-2.8-6.3-2.8h0l-12.72,6.47-12.72,6.48s-12.3,26.61-22.31,30.66A47.4,47.4,0,0,0,381.42,363.77Z" style="opacity:0.15"></path></g><g id="freepik--Le--inject-211"><path d="M435.28,403.11a5.16,5.16,0,0,0,2.25,4.31c4.92,2.75,12.05,3.29,17.93,1.48,6.75-2.09,9.82-5.62,11.13-10.23s1-9.77-.92-15.94c-1.23-4-.38-9.42.12-13.48.85-6.92.19-11.07-2-14.25a9.79,9.79,0,0,0-11.13-3.72L454,398.75Z" style="fill:#263238"></path><path d="M443.6,382c0,6.23-1.38,8.48-4.11,12.17-2.39,3.25-8.62,8.36-.64,12.28,6.21,3.06,21.64,2.73,25.76-7.55,3.2-8-1.62-15.46-.43-25.93.8-7,.18-19.28-8-21.16-4.46-1-5.91-.94-12.89,2.63-4.86,2.49-5.26,3.6-5.07,4.26l1.19-.55a8.93,8.93,0,0,1,9.28,4c2.81,4.4,3.15,10.91.13,15.19Z" style="fill:#37474f"></path><path d="M450.9,361.3c-4.39-8.38-12.78-5.54-12.78-5.54L419,366.28s11.11-18.2,15.33-29c5-12.76,6.83-20.32,4.62-38.77l-51.61-.9-27.82-3.25c.91,26,19.33,38.17,19.33,38.17s-17.26,42.6-20.72,57c-3.25,13.55-.95,23.76,5.16,28.64,10.35,8.26,23.77,7,42.72-4.44,19.17-11.53,46-30.54,46-30.54S457.2,373.31,450.9,361.3Z" style="fill:#455a64"></path><path d="M417.84,382c11.66-16,22.12-22.68,27.51-26a11.43,11.43,0,0,0-7.23-.26h0L419,366.28s-12.3,26.61-22.31,30.66A43,43,0,0,0,417.84,382Z" style="fill:#37474f"></path></g></g><g id="freepik--top--inject-211"><path d="M363.83,204.06c-14,5.32-14.7,9.32-18.69,21-4.56,13.39-12.14,34.33-16.06,45.51.78,5.61,16.06,17.12,22,15.75l18.12-40.67Z" style="fill:#e6e6e6"></path><path d="M434.85,227c9.34,41.14,5.26,79.51,5.26,79.51-10.92,9.76-67.36,13.39-82.3-11.28,7.41-25.88,0-33.37-2.35-65.36-.48-6.39,0-20.83,6.25-24.62,6.78-4.12,16.3-5.65,16.05-9.45l24.77-3.48c.46,6.73,20,9.2,20,9.2C430.59,207.3,433,218.64,434.85,227Z" style="fill:#f5f5f5"></path><path d="M374.29,174.51c2.44,1.18,5.48,2.33,8.23,2.27,2.48-.05,4.87.87,7.38,1,5.37.31,7.11,9.38,11.45,6.16.85-5.85,11-15.69,10.12-30.89-.46-7.71-4.76-13.82-11.91-15.93a9.81,9.81,0,0,0-6.78-7.27,28.07,28.07,0,0,0-12-1.72,49.87,49.87,0,0,0-12,1.81c-4.11,1.25-8.07,2.59-12.32,1.13-1.81-.61-2.17,1.16-2,2.57a11.84,11.84,0,0,0,.84,3.19,21.41,21.41,0,0,0,1.21,2.32,7.79,7.79,0,0,1-3.48-2c-.89-.79-2.6-2.75-3.34-1.54-.65,1.06-.57,3.47-.09,4.84a12.9,12.9,0,0,0,3,5.41c-2.2.49-3.14,2.72-3.36,4.11a9.3,9.3,0,0,0,2.79,7.8c1.76,1.69,4.1,2.31,6.43,2.8a5.1,5.1,0,0,1,1.82.83,11.65,11.65,0,0,1,1.55,2.25A34.57,34.57,0,0,0,374.29,174.51Z" style="fill:#37474f"></path><path d="M388.35,143.53c-2.22,4.29-2.58,21.55-.8,33.95a20.13,20.13,0,0,0,2.35.32c5.37.31,7.08,9.8,11.43,6.58.85-5.85,11.66-14.77,10.75-30-.46-7.71-4.83-16.51-12.52-17.27C399.56,137.14,391.83,139.1,388.35,143.53Z" style="fill:#455a64"></path><path d="M388.35,143.53c-.85,6.89,4.19,14.55,8.86,15.23-.3,3.83-.27,5.66.45,8.17a6.66,6.66,0,0,0,1,2.24,2.8,2.8,0,0,0,2.09,1.16c1.11,0,1.52-.68,1.81-1.57a29.67,29.67,0,0,1,1.49-3.31,6.16,6.16,0,0,1,.91-1.3c1.59-1.65,6.45-3.84,9.07,1.32,2.71,5.34-1.39,12.51-5.2,14.21-5.16,2.32-8.57-2.27-8.57-2.27l2.4,15.68a12.53,12.53,0,0,1-1.56,8.57c-3.76,6.27-11.57,11.88-15.94,20.87-5.12-7-7.11-16.57-6.57-21.24l-.69-6.73a33,33,0,0,1-9.72.37c-6.23-1-9-6.32-10.48-11.78-2.88-10.37-3.34-36.21,2.13-39,2.67-.21,6.71,5,9.7,5.13C376.91,149.54,380.94,141.64,388.35,143.53Z" style="fill:#ffa8a7"></path><path d="M382.8,163.71a2.39,2.39,0,1,1-2.81-1.89A2.4,2.4,0,0,1,382.8,163.71Z" style="fill:#263238"></path><path d="M364.63,164.8a2.39,2.39,0,1,1-2.62-2.15A2.39,2.39,0,0,1,364.63,164.8Z" style="fill:#263238"></path><path d="M377.9,194.56s9-2.09,12.84-4.42a17.5,17.5,0,0,0,7.06-7.91,11.29,11.29,0,0,1-3.73,8.43c-6.34,5.53-15.88,6.67-15.88,6.67Z" style="fill:#f28f8f"></path><path d="M373.5,159.15l-1.05,16.54-8.17-1C365,170.35,369.16,162.69,373.5,159.15Z" style="fill:#f28f8f"></path><path d="M378.73,158.08l5.82,1.6a3.16,3.16,0,0,0-2.18-3.8A3,3,0,0,0,378.73,158.08Z" style="fill:#263238"></path><path d="M358.37,160.52l5.62-2.34a2.92,2.92,0,0,0-3.88-1.71A3.21,3.21,0,0,0,358.37,160.52Z" style="fill:#263238"></path><path d="M381.91,177.89,373,180.55a4.46,4.46,0,0,0,5.63,3.21A4.88,4.88,0,0,0,381.91,177.89Z" style="fill:#b16668"></path><path d="M378.63,183.76a4.82,4.82,0,0,0,3.29-3.55,2.09,2.09,0,0,0-.43-.11,4.83,4.83,0,0,0-5.24,3.7A4.38,4.38,0,0,0,378.63,183.76Z" style="fill:#f28f8f"></path><path d="M386.88,219.42c2.18-4.52,8.19-13,11.34-17.31a28.89,28.89,0,0,0,4.31-9.81l-.51-3.38s.94-.42,3.32,3.38,8.34,7.41,8.34,7.41-5.34,15.86-15.52,23.08C391,215,389.09,217.54,386.88,219.42Z" style="fill:#e6e6e6"></path><path d="M382.78,218.71c-2.6-6.56-4.19-10.75-4.19-17.6l-.69-6.55a4.28,4.28,0,0,0-2,1.59,19.55,19.55,0,0,1-5.87,5.2c-2.12,7.38.77,16.85,3.59,21.64C374.63,218.74,378.77,213.26,382.78,218.71Z" style="fill:#e6e6e6"></path><g id="freepik--arms--inject-211"><path d="M384.73,287.63c.48-.73,2.18.6,5.66,1.12,4.43.66,6.11.39,10.83,1.27a23.13,23.13,0,0,0,6.52.74l-16.61,4.64a18.62,18.62,0,0,1-4.93-2.55C383.74,290.94,384.12,288.56,384.73,287.63Z" style="fill:#ffa8a7"></path><path d="M307.52,247c-1.23-.42-2,.12-1.8,1.21L317.57,304l81.45,28-12-55.83a4.34,4.34,0,0,0-2.64-2.74l-46.52-16-3.62-5.5a2.09,2.09,0,0,0-1-.78l-19.29-6.64a2,2,0,0,0-2.53,1l-.75,2.58Z" style="fill:#430BAB"></path><path d="M307.52,247c-1.23-.42-2,.12-1.8,1.21L317.57,304l81.45,28-12-55.83a4.34,4.34,0,0,0-2.64-2.74l-46.52-16-3.62-5.5a2.09,2.09,0,0,0-1-.78l-19.29-6.64a2,2,0,0,0-2.53,1l-.75,2.58Z" style="fill:#fff;opacity:0.6000000000000001"></path><polygon points="317.57 303.95 396.26 331 384.33 275.63 303.09 247.71 317.57 303.95" style="fill:#f0f0f0"></polygon><path d="M399,331.94l-17-52.4a5,5,0,0,0-2.85-2.7l-76.81-26.4c-1.22-.42-1.94.11-1.59,1.18L317.57,304Z" style="fill:#430BAB"></path><path d="M399,331.94l-17-52.4a5,5,0,0,0-2.85-2.7l-76.81-26.4c-1.22-.42-1.94.11-1.59,1.18L317.57,304Z" style="fill:#fff;opacity:0.4"></path><path d="M306.67,270c-3.11,4.36-2.91,7.62-1.28,13s5.63,11.55,7.73,13.17,6,3.83,10.12,2.7,3.86-6.49,5.58-8.85c2.74-3.78-1.48-6.13-5.4-6.39-9.25-.62-14-4.93-14-4.93Z" style="fill:#ffa8a7"></path><path d="M379.21,296.35a64,64,0,0,0,11.92-1l16.61-4.64c7.58.34,28-16.21,28-16.21l-11.3-31.48c-6.52-14.65-6.73-34.9-1.9-41.57,15.82,4,19.17,5.21,23.43,18.91,3.46,11.1,12.19,40.58,15.95,51.9,2.15,6.48,3.22,12.27-3.69,16.89C452,293.31,436,301.59,422.1,306.62c-7.44,2.69-11.5,5.1-19.43,6.84a74.94,74.94,0,0,1-11.62,1.84c-2.8.16-6.22.43-8.22-2.08-.44-.56-.86-1.67-1.43-2-.42-.26-1.26-.21-1.75-.39a4.37,4.37,0,0,1-1.42-.85,5.24,5.24,0,0,1-1.56-2.67c-.23-1.05-.4-.91-1.46-1.27a4.26,4.26,0,0,1-2.37-1.56c-.42-.63-.4-2-.85-2.42s-2-.44-2.66-.68c-1-.33-2.94-1.28-2.71-2.54.19-1,1.55-1.58,2.39-1.9C372.18,295.7,375.9,296.32,379.21,296.35Z" style="fill:#ffa8a7"></path><path d="M422.5,201.5c-3.24,3.24-5.63,14.06-3.61,26.65s15.85,46.33,15.85,46.33l-13.81,10.67s5.42,3,8.06,8.1a15.84,15.84,0,0,1,1.42,10.11,210.52,210.52,0,0,0,19.71-8.77c8.33-4.28,13.2-7,14.29-10.53s-1.24-11.25-3.73-19S446.42,218,443.09,211.2C440.5,205.9,433.78,203.49,422.5,201.5Z" style="fill:#e6e6e6"></path><path d="M420.93,285.15l-6.54,3.67s5.95,3.35,7.46,8.79a23.36,23.36,0,0,1,1,8.73l7.53-3s2-4.44-.7-10.39A15.64,15.64,0,0,0,420.93,285.15Z" style="fill:#e0e0e0"></path></g></g></g></g></svg>